<svg width="14" height="14" viewBox="0 0 14 14" fill="none" xmlns="http://www.w3.org/2000/svg">
<g clip-path="url(#clip0_187_2688)">
<path d="M6.4165 2.3335H2.33317C2.02375 2.3335 1.72701 2.45641 1.50821 2.6752C1.28942 2.894 1.1665 3.19074 1.1665 3.50016V11.6668C1.1665 11.9762 1.28942 12.273 1.50821 12.4918C1.72701 12.7106 2.02375 12.8335 2.33317 12.8335H10.4998C10.8093 12.8335 11.106 12.7106 11.3248 12.4918C11.5436 12.273 11.6665 11.9762 11.6665 11.6668V7.5835" stroke="#0E0B3D" strokeWidth="1.5" stroke-linecap="round" stroke-linejoin="round"/>
<path d="M10.7915 1.45814C11.0236 1.22608 11.3383 1.0957 11.6665 1.0957C11.9947 1.0957 12.3094 1.22608 12.5415 1.45814C12.7736 1.6902 12.9039 2.00495 12.9039 2.33314C12.9039 2.66133 12.7736 2.97608 12.5415 3.20814L6.99984 8.74981L4.6665 9.33314L5.24984 6.99981L10.7915 1.45814Z" stroke="#0E0B3D" strokeWidth="1.5" stroke-linecap="round" stroke-linejoin="round"/>
</g>
<defs>
<clipPath id="clip0_187_2688">
<rect width="14" height="14" fill="white"/>
</clipPath>
</defs>
</svg>
