<svg width="16" height="16" viewBox="0 0 16 16" fill="none" xmlns="http://www.w3.org/2000/svg">
<path d="M8.00016 1.3335C4.32016 1.3335 1.3335 4.32016 1.3335 8.00016C1.3335 11.6802 4.32016 14.6668 8.00016 14.6668C11.6802 14.6668 14.6668 11.6802 14.6668 8.00016C14.6668 4.32016 11.6802 1.3335 8.00016 1.3335ZM8.00016 13.3335C5.0535 13.3335 2.66683 10.9468 2.66683 8.00016C2.66683 5.0535 5.0535 2.66683 8.00016 2.66683C10.9468 2.66683 13.3335 5.0535 13.3335 8.00016C13.3335 10.9468 10.9468 13.3335 8.00016 13.3335Z" fill="#0E0B3D"/>
<path d="M7.99984 11.3332C9.84079 11.3332 11.3332 9.84079 11.3332 7.99984C11.3332 6.15889 9.84079 4.6665 7.99984 4.6665C6.15889 4.6665 4.6665 6.15889 4.6665 7.99984C4.6665 9.84079 6.15889 11.3332 7.99984 11.3332Z" fill="#0E0B3D"/>
</svg>
