<svg xmlns="http://www.w3.org/2000/svg" width="19" height="19" viewBox="0 0 19 19" fill="none">
<path opacity="0.2" d="M15.4375 6.58125H15.5582L15.4729 6.49589L11.3166 2.33964L11.2312 2.25429V2.375V6.53125V6.58125H11.2812H15.4375Z" fill="#F40F02" stroke="#F40F02" stroke-width="0.1"/>
<path d="M4.20625 3.01875H10.6375V6.53125C10.6375 6.70198 10.7053 6.86572 10.826 6.98645C10.9468 7.10718 11.1105 7.175 11.2812 7.175H14.7937V8.3125C14.7937 8.48323 14.8616 8.64697 14.9823 8.7677C15.103 8.88843 15.2668 8.95625 15.4375 8.95625C15.6082 8.95625 15.772 8.88843 15.8927 8.7677C16.0134 8.64697 16.0813 8.48323 16.0813 8.3125V6.53129V6.53125L4.20625 3.01875ZM4.20625 3.01875V8.3125C4.20625 8.48323 4.13843 8.64697 4.0177 8.7677C3.89697 8.88843 3.73323 8.95625 3.5625 8.95625C3.39177 8.95625 3.22803 8.88843 3.1073 8.7677C2.98657 8.64697 2.91875 8.48323 2.91875 8.3125V2.96875C2.91875 2.64054 3.04913 2.32578 3.28121 2.09371C3.51328 1.86163 3.82804 1.73125 4.15625 1.73125L11.2812 1.73125L11.2812 1.73125L4.20625 3.01875ZM16.4865 11.7365C16.6072 11.6157 16.675 11.452 16.675 11.2812C16.675 11.1105 16.6072 10.9468 16.4865 10.826C16.3657 10.7053 16.202 10.6375 16.0312 10.6375H13.6562C13.4855 10.6375 13.3218 10.7053 13.201 10.826C13.0803 10.9468 13.0125 11.1105 13.0125 11.2812V15.4375C13.0125 15.6082 13.0803 15.772 13.201 15.8927C13.3218 16.0134 13.4855 16.0813 13.6562 16.0813C13.827 16.0813 13.9907 16.0134 14.1115 15.8927C14.2322 15.772 14.3 15.6082 14.3 15.4375V14.3H15.4375C15.6082 14.3 15.772 14.2322 15.8927 14.1115C16.0134 13.9907 16.0813 13.827 16.0813 13.6562C16.0813 13.4855 16.0134 13.3218 15.8927 13.201C15.772 13.0803 15.6082 13.0125 15.4375 13.0125H14.3V11.925H16.0312C16.202 11.925 16.3657 11.8572 16.4865 11.7365ZM6.25481 14.2704C6.65391 13.8713 6.87812 13.33 6.87812 12.7656C6.87812 12.2012 6.65391 11.6599 6.25481 11.2608C5.85571 10.8617 5.31441 10.6375 4.75 10.6375H3.5625C3.39177 10.6375 3.22803 10.7053 3.1073 10.826C2.98657 10.9468 2.91875 11.1105 2.91875 11.2812V15.4375C2.91875 15.6082 2.98657 15.772 3.1073 15.8927C3.22803 16.0134 3.39177 16.0813 3.5625 16.0813C3.73323 16.0813 3.89697 16.0134 4.0177 15.8927C4.13843 15.772 4.20625 15.6082 4.20625 15.4375V14.8938H4.75C5.31441 14.8938 5.85571 14.6695 6.25481 14.2704ZM5.34441 12.1712C5.50206 12.3289 5.59063 12.5427 5.59063 12.7656C5.59063 12.9886 5.50206 13.2024 5.34441 13.36C5.18676 13.5177 4.97295 13.6062 4.75 13.6062H4.20625V11.925H4.75C4.97295 11.925 5.18676 12.0136 5.34441 12.1712ZM11.4247 15.284C11.9351 14.7736 12.2219 14.0813 12.2219 13.3594C12.2219 12.6375 11.9351 11.9452 11.4247 11.4347C10.9142 10.9243 10.2219 10.6375 9.5 10.6375H8.3125C8.14177 10.6375 7.97803 10.7053 7.8573 10.826C7.73657 10.9468 7.66875 11.1105 7.66875 11.2812V15.4375C7.66875 15.6082 7.73657 15.772 7.8573 15.8927C7.97803 16.0134 8.14177 16.0813 8.3125 16.0813H9.5C10.2219 16.0813 10.9142 15.7945 11.4247 15.284ZM10.5143 12.3451C10.7833 12.6141 10.9344 12.979 10.9344 13.3594C10.9344 13.7398 10.7833 14.1046 10.5143 14.3736C10.2453 14.6426 9.88042 14.7937 9.5 14.7937H8.95625V11.925H9.5C9.88042 11.925 10.2453 12.0761 10.5143 12.3451ZM11.925 3.92888L13.8836 5.8875H11.925V3.92888Z" fill="#F40F02" stroke="#F40F02" stroke-width="0.1"/>
</svg>