<svg xmlns="http://www.w3.org/2000/svg" width="20" height="20" viewBox="0 0 20 20"><g transform="translate(-2 -2)"><path d="M15.57,2a6.427,6.427,0,0,0-6.151,8.294L2,17.714V22H6.285L13.7,14.58A6.429,6.429,0,1,0,15.57,2Zm0,11.429a5.009,5.009,0,0,1-1.451-.216l-.819-.249-.6.605-2.272,2.272-.985-.984-1.01,1.01.985.985L8.28,17.985,7.3,17l-1.01,1.01L7.27,19,5.694,20.571H3.428V18.306l7-7,.606-.605-.249-.819a5,5,0,1,1,4.784,3.549Z" transform="translate(0 0)" fill="#6e6e6e"/><path d="M22,12a2,2,0,1,0-2-2A2,2,0,0,0,22,12Z" transform="translate(-6 -2)" fill="#6e6e6e"/></g></svg>