<svg xmlns="http://www.w3.org/2000/svg" width="15" height="15" viewBox="0 0 15 15" fill="none"><g clip-path="url(#clip0_187_2628)"><path class="fill" d="M7.50022 4.77295C5.9964 4.77295 4.77295 5.9964 4.77295 7.50022C4.77295 9.00404 5.9964 10.2275 7.50022 10.2275C9.00404 10.2275 10.2275 9.00404 10.2275 7.50022C10.2275 5.9964 9.00404 4.77295 7.50022 4.77295ZM7.50022 8.86386C6.74831 8.86386 6.13659 8.25213 6.13659 7.50022C6.13659 6.74831 6.74831 6.13659 7.50022 6.13659C8.25213 6.13659 8.86386 6.74831 8.86386 7.50022C8.86386 8.25213 8.25213 8.86386 7.50022 8.86386Z" fill="#0E0B3D"></path><path class="fill" d="M14.5368 9.216L12.9454 7.8175C12.9516 7.71155 12.9547 7.6055 12.9547 7.5C12.9547 7.39445 12.9516 7.28841 12.9454 7.18246L14.5367 5.784C14.7808 5.56945 14.8395 5.21241 14.677 4.93095L13.3134 2.56905C13.1509 2.28759 12.8123 2.15991 12.5044 2.26409L10.498 2.94291C10.3207 2.826 10.1368 2.71964 9.94757 2.62445L9.5323 0.548091C9.46861 0.229409 9.18875 0 8.86375 0H6.13648C5.81148 0 5.53162 0.229409 5.46789 0.548091L5.05262 2.62445C4.86339 2.71964 4.67957 2.82605 4.50225 2.94291L2.49566 2.26409C2.18793 2.16 1.84925 2.28759 1.68671 2.56905L0.32307 4.93095C0.16057 5.21241 0.219297 5.56945 0.463434 5.784L2.05471 7.18246C2.04862 7.28827 2.04557 7.39432 2.04557 7.5C2.04557 7.60568 2.04862 7.71177 2.05475 7.81755L0.463479 9.216C0.219343 9.43055 0.160615 9.78759 0.323115 10.069L1.68675 12.4309C1.8493 12.7124 2.18789 12.84 2.49571 12.7359L4.50221 12.057C4.67952 12.174 4.86339 12.2803 5.05262 12.3755L5.46789 14.4519C5.53162 14.7706 5.81148 15 6.13648 15H8.86375C9.18875 15 9.46861 14.7706 9.5323 14.4519L9.94757 12.3755C10.1368 12.2804 10.3206 12.174 10.4979 12.0571L12.5045 12.7359C12.8123 12.84 13.1509 12.7125 13.3134 12.431L14.6771 10.069C14.8397 9.78759 14.7809 9.43055 14.5368 9.216ZM12.4121 11.265L10.6063 10.6541C10.3917 10.5816 10.1551 10.6203 9.97489 10.7574C9.69952 10.9669 9.39943 11.1405 9.08298 11.2735C8.87439 11.3611 8.7228 11.5465 8.67843 11.7684L8.3048 13.6364H6.69543L6.32184 11.7684C6.27748 11.5465 6.12589 11.3611 5.9173 11.2735C5.60066 11.1405 5.30062 10.9669 5.02543 10.7574C4.84521 10.6202 4.60866 10.5815 4.39398 10.6541L2.58816 11.265L1.78348 9.87127L3.21498 8.61323C3.3848 8.464 3.46962 8.24027 3.44139 8.016C3.42002 7.84605 3.40921 7.67245 3.40921 7.5C3.40921 7.32755 3.42002 7.15395 3.44143 6.984C3.46966 6.75968 3.38484 6.536 3.21502 6.38673L1.78348 5.12868L2.58816 3.73491L4.39402 4.34582C4.60862 4.41836 4.84512 4.37968 5.02539 4.24259C5.30071 4.03309 5.6008 3.85945 5.9173 3.7265C6.12589 3.63886 6.27748 3.4535 6.32184 3.23159L6.69543 1.36364H8.3048L8.67839 3.23164C8.72275 3.4535 8.87434 3.63891 9.08293 3.72655C9.39943 3.8595 9.69952 4.03314 9.9748 4.24264C10.155 4.37977 10.3916 4.4185 10.6062 4.34591L12.4119 3.73505L13.2166 5.12877L11.7852 6.38682C11.6154 6.536 11.5306 6.75955 11.5588 6.98373C11.5802 7.15455 11.591 7.32827 11.591 7.50005C11.591 7.67182 11.5802 7.84555 11.5588 8.01636C11.5306 8.24059 11.6155 8.46414 11.7852 8.61332L13.2168 9.87136L12.4121 11.265Z" fill="#0E0B3D"></path></g><defs><clipPath id="clip0_187_2628"><rect width="15" height="15" fill="white"></rect></clipPath></defs></svg>