<svg xmlns="http://www.w3.org/2000/svg" width="19" height="19" viewBox="0 0 19 19" fill="none">
  <path d="M16.4762 14.4432L16.4762 14.4432C16.5996 14.5612 16.671 14.7234 16.6748 14.8941C16.6785 15.0646 16.6145 15.2297 16.4966 15.353C16.2853 15.5805 16.0298 15.7623 15.7457 15.8876C15.4615 16.0128 15.1547 16.0787 14.8442 16.0812L14.8438 16.0813C13.5008 16.0813 12.4187 14.8545 12.4187 13.3594C12.4187 11.8642 13.5008 10.6375 14.8438 10.6375H14.8442C15.1547 10.64 15.4615 10.7059 15.7457 10.8312C16.0298 10.9564 16.2854 11.1384 16.4968 11.3659C16.4968 11.3659 16.4968 11.3659 16.4969 11.366L16.4762 14.4432ZM16.4762 14.4432C16.3529 14.3252 16.1877 14.261 16.017 14.2648C15.8464 14.2686 15.6842 14.34 15.5661 14.4633L15.5653 14.4643M16.4762 14.4432L15.5653 14.4643M15.5653 14.4643C15.4734 14.5653 15.362 14.6466 15.2378 14.7033C15.1137 14.7598 14.9795 14.7906 14.8432 14.7937C14.2263 14.7934 13.7063 14.159 13.7063 13.3594C13.7063 12.5598 14.2263 11.9254 14.8432 11.925L15.5653 14.4643ZM16.0813 6.53129C16.0813 6.44673 16.0647 6.36298 16.0324 6.28483C16.0001 6.20668 15.9527 6.13566 15.893 6.07584L15.8929 6.07582L16.0312 8.3125C16.0312 8.46997 15.9687 8.621 15.8573 8.73234C15.746 8.84369 15.595 8.90625 15.4375 8.90625C15.28 8.90625 15.129 8.84369 15.0177 8.73234C14.9063 8.621 14.8438 8.46997 14.8438 8.3125V7.175H14.7937M16.0813 6.53129L16.0312 6.53125H16.0813V6.53129ZM16.0813 6.53129V8.3125C16.0813 8.48323 16.0134 8.64697 15.8927 8.7677C15.772 8.88843 15.6082 8.95625 15.4375 8.95625C15.2668 8.95625 15.103 8.88843 14.9823 8.7677C14.8616 8.64697 14.7937 8.48323 14.7937 8.3125V7.175M14.7937 7.175V7.125L11.2812 1.78125V1.73125L11.2812 1.73125L4.15625 1.73125C3.82804 1.73125 3.51328 1.86163 3.28121 2.09371C3.04913 2.32578 2.91875 2.64054 2.91875 2.96875V8.3125C2.91875 8.48323 2.98657 8.64697 3.1073 8.7677C3.22803 8.88843 3.39177 8.95625 3.5625 8.95625C3.73323 8.95625 3.89697 8.88843 4.0177 8.7677C4.13843 8.64697 4.20625 8.48323 4.20625 8.3125V3.01875H10.6375V6.53125C10.6375 6.70198 10.7053 6.86572 10.826 6.98645C10.9468 7.10718 11.1105 7.175 11.2812 7.175H14.7937ZM3.85938 10.6375H2.67188C2.50114 10.6375 2.3374 10.7053 2.21668 10.826C2.09595 10.9468 2.02812 11.1105 2.02812 11.2812V15.4375C2.02812 15.6082 2.09595 15.772 2.21667 15.8927C2.3374 16.0134 2.50114 16.0813 2.67188 16.0813H3.85938C4.58126 16.0813 5.27358 15.7945 5.78403 15.284C6.29448 14.7736 6.58125 14.0813 6.58125 13.3594C6.58125 12.6375 6.29448 11.9452 5.78403 11.4347C5.27358 10.9243 4.58126 10.6375 3.85938 10.6375ZM3.85938 14.7937H3.31562V11.925H3.85938C4.23979 11.925 4.60463 12.0761 4.87363 12.3451C5.14263 12.6141 5.29375 12.979 5.29375 13.3594C5.29375 13.7398 5.14263 14.1046 4.87363 14.3736C4.60463 14.6426 4.23979 14.7937 3.85938 14.7937ZM9.5 10.6375C8.15705 10.6375 7.075 11.8642 7.075 13.3594C7.075 14.8545 8.15705 16.0813 9.5 16.0813C10.843 16.0813 11.925 14.8545 11.925 13.3594C11.925 11.8642 10.843 10.6375 9.5 10.6375ZM9.5 14.7937C8.88287 14.7937 8.3625 14.1592 8.3625 13.3594C8.3625 12.5596 8.88287 11.925 9.5 11.925C10.1171 11.925 10.6375 12.5596 10.6375 13.3594C10.6375 14.1592 10.1171 14.7937 9.5 14.7937ZM11.925 5.8875V3.92888L13.8836 5.8875H11.925Z" fill="#467CE8" stroke="#467CE8" stroke-width="0.1"/>
</svg>