<svg width="16" height="16" viewBox="0 0 16 16" fill="none" xmlns="http://www.w3.org/2000/svg">
<path d="M7.99984 9.33366C8.73622 9.33366 9.33317 8.73671 9.33317 8.00033C9.33317 7.26395 8.73622 6.66699 7.99984 6.66699C7.26346 6.66699 6.6665 7.26395 6.6665 8.00033C6.6665 8.73671 7.26346 9.33366 7.99984 9.33366Z" stroke="#0E0B3D" stroke-width="2"/>
<path d="M3.59919 3.92009L3.93252 3.34209C3.80165 3.26643 3.64895 3.23749 3.49947 3.26002C3.34999 3.28255 3.21261 3.35522 3.10986 3.46609L3.59919 3.92009ZM2.26652 6.22943L1.62919 6.03276C1.58483 6.17704 1.59074 6.3321 1.64597 6.47258C1.70119 6.61306 1.80245 6.73064 1.93319 6.80609L2.26652 6.22943ZM2.26519 9.77009L1.93186 9.19276C1.80096 9.26837 1.69964 9.38622 1.64453 9.52697C1.58941 9.66773 1.58377 9.82304 1.62852 9.96743L2.26519 9.77009ZM3.59852 12.0794L3.10919 12.5328C3.21194 12.6436 3.34933 12.7163 3.49881 12.7388C3.64829 12.7614 3.80099 12.7324 3.93186 12.6568L3.59852 12.0794ZM6.66519 13.8494H5.99986C5.99986 14.0005 6.05119 14.1471 6.14542 14.2652C6.23966 14.3833 6.37121 14.4659 6.51852 14.4994L6.66719 13.8494H6.66519ZM9.33252 13.8508L9.48119 14.5008C9.62838 14.4671 9.75978 14.3844 9.85388 14.2664C9.94799 14.1483 9.99922 14.0018 9.99919 13.8508H9.33252ZM12.3999 12.0801L12.0665 12.6574C12.1973 12.7329 12.3499 12.7618 12.4992 12.7392C12.6486 12.7167 12.7858 12.6441 12.8885 12.5334L12.3999 12.0801ZM13.7319 9.76943L14.3692 9.96609C14.4135 9.82181 14.4076 9.66675 14.3524 9.52627C14.2972 9.38579 14.1959 9.26821 14.0652 9.19276L13.7319 9.76943ZM13.7332 6.22876L14.0665 6.80609C14.1974 6.73049 14.2987 6.61264 14.3539 6.47188C14.409 6.33112 14.4146 6.17581 14.3699 6.03143L13.7332 6.22876ZM12.3999 3.91876L12.8892 3.46609C12.7865 3.35511 12.6492 3.28232 12.4997 3.25966C12.3502 3.23701 12.1975 3.26584 12.0665 3.34143L12.3999 3.91876ZM9.33319 2.15009H9.99986C9.99988 1.9991 9.94865 1.85257 9.85455 1.73449C9.76045 1.61641 9.62905 1.53376 9.48186 1.50009L9.33319 2.15009ZM6.66652 2.14876L6.51786 1.49876C6.37067 1.53243 6.23926 1.61507 6.14516 1.73315C6.05106 1.85124 5.99983 1.99777 5.99986 2.14876H6.66652ZM2.90386 6.42609C3.1393 5.66141 3.54398 4.9596 4.08786 4.37276L3.10986 3.46609C2.43006 4.19967 1.92421 5.0776 1.62986 6.03343L2.90386 6.42676V6.42609ZM3.38119 10.6668C3.18138 10.3213 3.02083 9.95457 2.90252 9.57343L1.62919 9.96809C1.77386 10.4354 1.97252 10.8934 2.22652 11.3334L3.38119 10.6668ZM4.08786 11.6274C3.81748 11.3345 3.58002 11.0123 3.38119 10.6668L2.22652 11.3334C2.47986 11.7734 2.77786 12.1741 3.10986 12.5334L4.08786 11.6274ZM9.18519 13.2014C8.4049 13.3791 7.59461 13.3786 6.81452 13.2001L6.51786 14.5001C7.49321 14.7232 8.5063 14.7236 9.48186 14.5014L9.18519 13.2014ZM13.0959 9.57409C12.8604 10.3388 12.4557 11.0406 11.9119 11.6274L12.8892 12.5341C13.569 11.8005 14.0748 10.9233 14.3692 9.96743L13.0959 9.57409ZM12.6185 5.33343C12.8225 5.68676 12.9819 6.05343 13.0972 6.42676L14.3705 6.03209C14.2232 5.55603 14.0229 5.09804 13.7732 4.66676L12.6185 5.33343ZM11.9119 4.37276C12.1765 4.65943 12.4145 4.97943 12.6185 5.33343L13.7732 4.66676C13.5244 4.23509 13.2281 3.83259 12.8899 3.46676L11.9112 4.37343L11.9119 4.37276ZM6.81452 2.79876C7.59481 2.62112 8.4051 2.62158 9.18519 2.80009L9.48186 1.50009C8.50671 1.27711 7.4932 1.27666 6.51786 1.49876L6.81452 2.79876ZM7.33319 3.38143V2.14809H5.99986V3.38143H7.33319ZM4.99986 3.95876L3.93252 3.34209L3.26586 4.49676L4.33319 5.11343L4.99986 3.95876ZM2.99986 8.57743L1.93252 9.19343L2.59919 10.3481L3.66652 9.73209L2.99986 8.57743ZM3.66652 6.26809L2.59986 5.65276L1.93319 6.80743L2.99986 7.42276L3.66652 6.26809ZM7.33319 13.8501V12.6188H5.99986V13.8494L7.33319 13.8501ZM4.33319 10.8868L3.26586 11.5034L3.93252 12.6581L4.99919 12.0414L4.33319 10.8868ZM12.7339 11.5034L11.6665 10.8868L10.9999 12.0414L12.0672 12.6581L12.7339 11.5034ZM9.99986 13.8514V12.6188H8.66652V13.8521L9.99986 13.8514ZM13.4005 5.65143L12.3332 6.26809L12.9999 7.42276L14.0665 6.80609L13.4005 5.65143ZM14.0659 9.19276L12.9999 8.57743L12.3332 9.73209L13.3999 10.3474L14.0659 9.19276ZM9.99986 3.38143V2.15009H8.66652V3.38143H9.99986ZM12.0672 3.34209L10.9999 3.95876L11.6665 5.11343L12.7339 4.49676L12.0672 3.34209ZM8.66652 3.38143C8.66652 4.92143 10.3332 5.88343 11.6665 5.11343L10.9999 3.95876C10.8985 4.01727 10.7835 4.04808 10.6665 4.04808C10.5495 4.04808 10.4345 4.01727 10.3332 3.95876C10.2319 3.90025 10.1477 3.8161 10.0892 3.71475C10.0307 3.61341 9.99986 3.49845 9.99986 3.38143H8.66652ZM12.3332 6.26809C10.9999 7.03809 10.9999 8.96209 12.3332 9.73209L12.9999 8.57743C12.8985 8.51891 12.8144 8.43475 12.7559 8.33341C12.6974 8.23207 12.6666 8.11711 12.6666 8.00009C12.6666 7.88307 12.6974 7.76812 12.7559 7.66677C12.8144 7.56543 12.8985 7.48127 12.9999 7.42276L12.3332 6.26809ZM11.6665 10.8868C10.3332 10.1174 8.66652 11.0794 8.66652 12.6188H9.99986C9.99986 12.5017 10.0307 12.3868 10.0892 12.2854C10.1477 12.1841 10.2319 12.0999 10.3332 12.0414C10.4345 11.9829 10.5495 11.9521 10.6665 11.9521C10.7835 11.9521 10.8985 11.9829 10.9999 12.0414L11.6665 10.8868ZM7.33319 12.6188C7.33319 11.0788 5.66652 10.1168 4.33319 10.8868L4.99919 12.0414C5.10053 11.9829 5.21616 11.9521 5.33318 11.9521C5.45021 11.9521 5.56517 11.9829 5.66651 12.0414C5.76786 12.0999 5.85202 12.1841 5.91053 12.2854C5.96905 12.3868 5.99985 12.5017 5.99986 12.6188H7.33319ZM3.66652 9.73209C4.99986 8.96209 4.99986 7.03809 3.66652 6.26809L2.99986 7.42276C3.10119 7.48127 3.18534 7.56543 3.24385 7.66677C3.30236 7.76812 3.33316 7.88307 3.33316 8.00009C3.33316 8.11711 3.30236 8.23207 3.24385 8.33341C3.18534 8.43475 3.10119 8.51891 2.99986 8.57743L3.66652 9.73209ZM5.99986 3.38143C5.99985 3.49845 5.96905 3.61341 5.91053 3.71475C5.85202 3.8161 5.76786 3.90025 5.66651 3.95876C5.56517 4.01727 5.45021 4.04808 5.33318 4.04808C5.21616 4.04808 5.1012 4.01727 4.99986 3.95876L4.33319 5.11343C5.66652 5.88276 7.33319 4.92076 7.33319 3.38143H5.99986Z" fill="#0E0B3D"/>
</svg>
