<svg width="16" height="16" viewBox="0 0 16 16" fill="none" xmlns="http://www.w3.org/2000/svg">
<path d="M9.14396 12.743L5.39396 2.74304C5.34482 2.61199 5.25686 2.49905 5.14183 2.41932C5.02679 2.33959 4.89017 2.29688 4.75021 2.29688C4.61024 2.29687 4.47362 2.33959 4.35858 2.41932C4.24355 2.49905 4.15559 2.61199 4.10645 2.74304L0.356455 12.743C0.294432 12.9133 0.302158 13.1012 0.377951 13.2658C0.453745 13.4305 0.591475 13.5585 0.761181 13.6221C0.930888 13.6857 1.11884 13.6797 1.28416 13.6055C1.44948 13.5312 1.57879 13.3947 1.64395 13.2255L2.77395 10.2124C2.77841 10.2005 2.78638 10.1902 2.79683 10.183C2.80727 10.1757 2.81968 10.1718 2.83239 10.1718H6.66802C6.68073 10.1718 6.69314 10.1757 6.70358 10.183C6.71403 10.1902 6.722 10.2005 6.72646 10.2124L7.85645 13.2255C7.92162 13.3947 8.05093 13.5312 8.21625 13.6055C8.38157 13.6797 8.56952 13.6857 8.73923 13.6221C8.90893 13.5585 9.04667 13.4305 9.12246 13.2658C9.19825 13.1012 9.20598 12.9133 9.14396 12.743ZM3.33645 8.71179L4.69177 5.09773C4.69627 5.08587 4.70426 5.07566 4.7147 5.06846C4.72514 5.06125 4.73752 5.05739 4.75021 5.05739C4.76289 5.05739 4.77527 5.06125 4.78571 5.06846C4.79615 5.07566 4.80414 5.08587 4.80864 5.09773L6.16396 8.71242C6.16748 8.72186 6.16868 8.73202 6.16743 8.74203C6.16618 8.75203 6.16253 8.76159 6.15679 8.76988C6.15105 8.77817 6.14339 8.78494 6.13446 8.78963C6.12553 8.79432 6.1156 8.79677 6.10552 8.79679H3.39489C3.38481 8.79677 3.37488 8.79432 3.36595 8.78963C3.35702 8.78494 3.34936 8.77817 3.34362 8.76988C3.33788 8.76159 3.33423 8.75203 3.33298 8.74203C3.33173 8.73202 3.33293 8.72186 3.33645 8.71242V8.71179ZM12.5243 5.29679C11.2205 5.28742 10.053 6.04273 9.55552 7.21554C9.48424 7.38337 9.48255 7.57265 9.55083 7.74172C9.6191 7.9108 9.75175 8.04583 9.91958 8.1171C10.0874 8.18838 10.2767 8.19007 10.4458 8.12179C10.6148 8.05352 10.7499 7.92087 10.8211 7.75304C11.0986 7.10023 11.7515 6.67679 12.4874 6.67179C13.4974 6.66492 14.3127 7.49992 14.3127 8.51085C14.3127 8.52302 14.308 8.53471 14.2995 8.54346C14.2911 8.55221 14.2796 8.55732 14.2674 8.55773C13.5824 8.57679 12.7699 8.62242 12.0449 8.70773C10.334 8.90898 9.31271 9.84179 9.31271 11.203C9.31271 11.9277 9.58646 12.578 10.0836 13.0368C10.5502 13.4665 11.1877 13.703 11.8752 13.703C12.844 13.703 13.678 13.453 14.3108 12.9774H14.3127C14.3123 13.0677 14.3297 13.1572 14.3639 13.2407C14.3981 13.3243 14.4484 13.4003 14.512 13.4644C14.5755 13.5285 14.6511 13.5795 14.7344 13.6144C14.8176 13.6493 14.907 13.6675 14.9972 13.6679C15.0875 13.6683 15.177 13.6509 15.2606 13.6167C15.3441 13.5825 15.4201 13.5322 15.4842 13.4686C15.5484 13.4051 15.5993 13.3295 15.6342 13.2462C15.6691 13.163 15.6873 13.0736 15.6877 12.9834V8.5146C15.6877 6.75898 14.2815 5.3096 12.5243 5.29679ZM11.8752 12.328C11.3274 12.328 10.6877 12.0334 10.6877 11.203C10.6877 10.8696 10.8074 10.6362 11.0761 10.4459C11.3377 10.2605 11.7386 10.1284 12.2055 10.0734C12.8655 9.99554 13.6061 9.95273 14.2411 9.93367C14.2496 9.93366 14.258 9.93537 14.2658 9.9387C14.2736 9.94204 14.2806 9.94692 14.2865 9.95306C14.2923 9.9592 14.2969 9.96647 14.2998 9.97441C14.3028 9.98236 14.3041 9.99082 14.3036 9.99929C14.219 11.5655 13.4208 12.328 11.8752 12.328Z" fill="#0E0B3D"/>
</svg>
