<svg width="14" height="16" viewBox="0 0 14 16" fill="none" xmlns="http://www.w3.org/2000/svg">
<path fill-rule="evenodd" clip-rule="evenodd" d="M5.52104 0.503872H11.4335C12.3551 0.503872 13.1062 1.25891 13.1062 2.17656V13.8273C13.1062 14.7488 12.3512 15.5 11.4335 15.5H2.5706C1.64908 15.5 0.897915 14.745 0.897915 13.8273V4.79401L5.52104 0.5V0.503872Z" fill="url(#paint0_linear_187_2858)"/>
<path d="M8.37081 2.27336H3.90256C3.85979 2.27336 3.82512 2.36871 3.82512 2.48632V4.51136C3.82512 4.62897 3.85979 4.72432 3.90256 4.72432H8.37081C8.41358 4.72432 8.44825 4.62897 8.44825 4.51136V2.48632C8.44825 2.36871 8.41358 2.27336 8.37081 2.27336Z" fill="white"/>
<path d="M10.2681 6.54414H3.06234C2.99391 6.54414 2.93844 6.63949 2.93844 6.7571V8.78214C2.93844 8.89975 2.99391 8.9951 3.06234 8.9951H10.2681C10.3365 8.9951 10.392 8.89975 10.392 8.78214V6.7571C10.392 6.63949 10.3365 6.54414 10.2681 6.54414Z" fill="white"/>
<path d="M8.23916 10.8111H3.0275C2.97831 10.8111 2.93844 10.9064 2.93844 11.024V13.049C2.93844 13.1667 2.97831 13.262 3.0275 13.262H8.23916C8.28835 13.262 8.32822 13.1667 8.32822 13.049V11.024C8.32822 10.9064 8.28835 10.8111 8.23916 10.8111Z" fill="white"/>
<path fill-rule="evenodd" clip-rule="evenodd" d="M0.897915 4.79788L5.52104 0.503872C5.34293 1.5493 5.21129 2.60248 5.18031 3.6634C5.15321 4.58493 4.46787 4.72432 3.58893 4.70108C2.71 4.67785 0.897915 4.80176 0.897915 4.80176V4.79788Z" fill="#001AC1"/>
<path fill-rule="evenodd" clip-rule="evenodd" d="M5.52104 0.503872L4.70019 2.43598C4.15811 3.70986 4.30137 3.76794 3.13204 4.12029L0.894043 4.79788L5.51717 0.503872L5.52104 0.503872Z" fill="#73D0FF"/>
<path d="M11.7394 2.27336H9.38139C9.35787 2.27336 9.3388 2.36871 9.3388 2.48632V4.51136C9.3388 4.62897 9.35787 4.72432 9.38139 4.72432H11.7394C11.7629 4.72432 11.782 4.62897 11.782 4.51136V2.48632C11.782 2.36871 11.7629 2.27336 11.7394 2.27336Z" fill="white"/>
<path fill-rule="evenodd" clip-rule="evenodd" d="M12.1151 1.95111C11.8927 2.04654 11.5814 2.44187 11.399 2.63272C11.2789 2.75541 11.19 2.85084 11.061 2.97808C10.9721 3.06896 10.8075 3.33251 10.6563 3.21891C10.4962 3.10077 10.1537 2.51458 9.82455 2.86902C9.49987 3.21891 9.99357 3.58244 10.1581 3.75057C10.8386 4.44582 10.723 4.34585 11.6748 3.37796C11.9061 3.14166 12.1329 2.90991 12.3553 2.66453C12.4576 2.55547 12.6221 2.41915 12.5376 2.16468C12.4843 2.00564 12.3108 1.86477 12.1107 1.95111H12.1151Z" fill="#2746FF"/>
<defs>
<linearGradient id="paint0_linear_187_2858" x1="7.00207" y1="0.503872" x2="7.00207" y2="15.5039" gradientUnits="userSpaceOnUse">
<stop stop-color="#293FFF"/>
<stop offset="1" stop-color="#00B3FF"/>
</linearGradient>
</defs>
</svg>
