<svg xmlns="http://www.w3.org/2000/svg" width="375" height="370" viewBox="0 0 375 370" fill="none">
<mask id="path-1-inside-1_264_591" fill="white">
<path fill-rule="evenodd" clip-rule="evenodd" d="M244.376 358.684C410.817 314.086 509.591 143.005 464.993 -23.436L379.026 -0.401077C410.902 118.562 340.304 240.841 221.341 272.717C102.378 304.593 -19.9012 233.995 -51.7772 115.032L-137.745 138.067C-93.1468 304.508 77.9344 403.282 244.376 358.684Z"/>
</mask>
<path d="M464.993 -23.436L423.582 -177.984L578.13 -219.395L619.541 -64.847L464.993 -23.436ZM379.026 -0.401077L224.478 41.0099L183.067 -113.538L337.615 -154.949L379.026 -0.401077ZM-51.7772 115.032L-93.1883 -39.5159L61.3598 -80.9269L102.771 73.6212L-51.7772 115.032ZM-137.745 138.067L-292.293 179.478L-333.704 24.9301L-179.156 -16.481L-137.745 138.067ZM619.541 -64.847C687.01 186.949 537.583 445.764 285.787 513.232L202.965 204.136C284.052 182.409 332.172 99.0618 310.445 17.975L619.541 -64.847ZM337.615 -154.949L423.582 -177.984L506.404 131.112L420.437 154.147L337.615 -154.949ZM179.93 118.169C213.538 109.163 233.483 74.6182 224.478 41.0099L533.574 -41.812C588.321 162.505 467.069 372.518 262.752 427.265L179.93 118.169ZM102.771 73.6212C111.776 107.229 146.321 127.174 179.93 118.169L262.752 427.265C58.4346 482.012 -151.579 360.761 -206.325 156.443L102.771 73.6212ZM-179.156 -16.481L-93.1883 -39.5159L-10.3662 269.58L-96.3336 292.615L-179.156 -16.481ZM285.787 513.232C33.991 580.701 -224.824 431.274 -292.293 179.478L16.8035 96.6561C38.5306 177.743 121.878 225.863 202.965 204.136L285.787 513.232Z" fill="url(#paint0_linear_264_591)" mask="url(#path-1-inside-1_264_591)"/>
<defs>
<linearGradient id="paint0_linear_264_591" x1="264.835" y1="30.1962" x2="88.0526" y2="452.95" gradientUnits="userSpaceOnUse">
<stop stop-color="#3333FF" stop-opacity="0.1"/>
<stop offset="1" stop-color="white" stop-opacity="0"/>
</linearGradient>
</defs>
</svg>