<svg xmlns="http://www.w3.org/2000/svg" width="312" height="312" viewBox="0 0 312 312" fill="none">
  <mask id="path-1-inside-1_351_73" fill="white">
    <path fill-rule="evenodd" clip-rule="evenodd" d="M49.7031 311.055C-18.248 243.104 -14.7655 129.451 57.4814 57.2039C129.728 -15.0431 243.381 -18.5255 311.333 49.4256L269.613 91.1449C227.075 48.6071 150.853 47.271 99.2007 98.9232C47.5485 150.575 48.8846 226.798 91.4224 269.336L49.7031 311.055Z"/>
  </mask>
  <path d="M49.7031 311.055L70.9163 332.268L49.7031 353.482L28.4899 332.268L49.7031 311.055ZM311.333 49.4256L332.546 28.2124L353.759 49.4256L332.546 70.6388L311.333 49.4256ZM269.613 91.1449L290.827 112.358L269.613 133.571L248.4 112.358L269.613 91.1449ZM91.4224 269.336L112.636 248.123L133.849 269.336L112.636 290.549L91.4224 269.336ZM28.4899 332.268C-52.3832 251.395 -46.4507 118.71 36.2682 35.9907L78.6946 78.4171C16.9196 140.192 15.8872 234.813 70.9163 289.842L28.4899 332.268ZM36.2682 35.9907C118.987 -46.7282 251.673 -52.6608 332.546 28.2124L290.119 70.6388C235.09 15.6097 140.47 16.642 78.6946 78.4171L36.2682 35.9907ZM332.546 70.6388L290.827 112.358L248.4 69.9317L290.119 28.2124L332.546 70.6388ZM77.9875 77.71C140.297 15.4001 235.542 14.6473 290.827 69.9317L248.4 112.358C218.609 82.5668 161.408 79.1418 120.414 120.136L77.9875 77.71ZM70.2092 290.549C14.9249 235.265 15.6777 140.02 77.9875 77.71L120.414 120.136C79.4194 161.131 82.8443 218.331 112.636 248.123L70.2092 290.549ZM112.636 290.549L70.9163 332.268L28.4899 289.842L70.2092 248.123L112.636 290.549Z" fill="url(#paint0_linear_351_73)" mask="url(#path-1-inside-1_351_73)"/>
  <defs>
    <linearGradient id="paint0_linear_351_73" x1="111.837" y1="248.922" x2="71.0043" y2="-9.11473" gradientUnits="userSpaceOnUse">
      <stop stop-color="#3333FF" stop-opacity="0.1"/>
      <stop offset="1" stop-color="white" stop-opacity="0"/>
    </linearGradient>
  </defs>
</svg>