<svg xmlns="http://www.w3.org/2000/svg" width="317" height="316" viewBox="0 0 317 316" fill="none">
  <mask id="path-1-inside-1_351_76" fill="white">
    <path fill-rule="evenodd" clip-rule="evenodd" d="M262.407 0C334.654 72.247 334.654 189.383 262.407 261.63C190.16 333.877 73.0247 333.877 0.7777 261.63L42.497 219.91C91.7031 269.116 171.482 269.116 220.688 219.91C269.894 170.704 269.894 90.9254 220.688 41.7193L262.407 0Z"/>
  </mask>
  <path d="M262.407 0L241.194 -21.2132L262.407 -42.4264L283.62 -21.2132L262.407 0ZM0.7777 261.63L-20.4355 282.843L-41.6487 261.63L-20.4355 240.416L0.7777 261.63ZM42.497 219.91L21.2838 198.697L42.497 177.484L63.7102 198.697L42.497 219.91ZM220.688 41.7193L199.475 62.9325L178.262 41.7193L199.475 20.5061L220.688 41.7193ZM283.62 -21.2132C367.583 62.7495 367.583 198.88 283.62 282.843L241.194 240.416C301.725 179.885 301.725 81.7445 241.194 21.2132L283.62 -21.2132ZM283.62 282.843C199.658 366.805 63.5272 366.805 -20.4355 282.843L21.9909 240.416C82.5222 300.948 180.663 300.948 241.194 240.416L283.62 282.843ZM-20.4355 240.416L21.2838 198.697L63.7102 241.123L21.9909 282.843L-20.4355 240.416ZM241.901 241.123C180.979 302.045 82.2056 302.045 21.2838 241.123L63.7102 198.697C101.201 236.187 161.984 236.187 199.475 198.697L241.901 241.123ZM241.901 20.5061C302.823 81.4279 302.823 180.202 241.901 241.123L199.475 198.697C236.965 161.207 236.965 100.423 199.475 62.9325L241.901 20.5061ZM199.475 20.5061L241.194 -21.2132L283.62 21.2132L241.901 62.9325L199.475 20.5061Z" fill="url(#paint0_linear_351_76)" mask="url(#path-1-inside-1_351_76)"/>
  <defs>
    <linearGradient id="paint0_linear_351_76" x1="222.901" y1="39.5062" x2="257.457" y2="309.006" gradientUnits="userSpaceOnUse">
      <stop stop-color="#3333FF" stop-opacity="0.1"/>
      <stop offset="1" stop-color="white" stop-opacity="0"/>
    </linearGradient>
  </defs>
</svg>