<!-- <svg width="161" height="50" viewBox="0 0 161 50" fill="none" xmlns="http://www.w3.org/2000/svg">
<path fill-rule="evenodd" clip-rule="evenodd" d="M154.004 30.0002C154.004 32.5045 152.31 33.9974 149.454 33.9974H142.001V26.0029H149.454C152.31 26.0029 154.004 27.544 154.004 30.0002ZM146.156 13.9992C148.614 13.9992 149.999 15.2967 149.999 17.4746C149.999 19.6526 148.614 20.9964 146.156 20.9964H142.001V13.9992L146.156 13.9992ZM160.004 30.8859C160.004 27.1285 157.937 24.4983 154.508 23.2302C156.058 21.7742 156.81 19.8955 156.81 17.6411C156.81 12.5686 152.723 8.99909 146.992 8.99909H136V39.9976H149.811C155.776 39.9976 160.004 36.2402 160.004 30.8859H160.004ZM114.003 33.997C108.247 33.997 104.002 29.8501 104.002 23.9984C104.002 18.1466 108.247 13.9997 114.003 13.9997C119.711 13.9997 124.003 18.2388 124.003 23.9984C124.003 29.8501 119.711 33.997 114.003 33.997ZM146.003 44.4006C143.742 44.5417 142.281 44.5887 141.669 44.5887C134.321 44.5887 129.186 42.0492 124.994 36.594C128.762 33.6313 131.07 29.1636 131.07 24.0846C131.212 15.1963 123.439 7.81297 114.489 8.00108C105.539 7.81297 97.8614 15.1963 98.0027 24.0846C97.8614 32.9729 105.539 40.3562 114.489 40.1681C116.279 40.1681 118.022 39.886 119.718 39.3687C124.664 46.3758 132.012 49.9969 140.444 49.9969C142.517 49.9969 144.354 49.8088 146.003 49.3856L146.003 44.4006ZM85.9995 39.9976H92.0019V8.99909H85.9995V39.9976Z" fill="#313131"/>
<path fill-rule="evenodd" clip-rule="evenodd" d="M7.70792 0.0465744C4.03337 0.413005 0.919493 3.26397 0.18273 6.93729C-0.00262285 7.84881 -0.0118897 8.20121 0.00665226 13.4289C0.0205525 18.8681 0.0112857 18.6568 0.270774 19.6762C0.873159 22.0623 2.54131 24.1618 4.74696 25.2982L5.18254 25.5243L5.1918 30.2639L5.2057 35.0029L8.93586 30.8083C10.9886 28.502 12.7309 26.534 12.8143 26.44L12.9626 26.2662L12.9811 21.151C12.9996 15.5422 12.9857 15.8292 13.2869 14.434C14.3805 9.34238 18.3146 5.22268 23.3236 3.91709C23.875 3.7757 24.1021 3.72932 25.154 3.55998C25.4042 3.51769 26.9565 3.49394 30.7515 3.48503L36.0015 3.46598L35.8486 3.26869C35.3528 2.63453 34.5836 1.92532 33.8654 1.44145C32.7208 0.671014 31.4002 0.19237 30.0101 0.0419698C29.4911 -0.0147532 8.26397 -0.00983824 7.70792 0.0465744Z" fill="#313131"/>
<path fill-rule="evenodd" clip-rule="evenodd" d="M25.3077 7.06496C23.521 7.25919 22.0356 7.79599 20.5505 8.77652C18.1556 10.3589 16.5173 12.9407 16.0624 15.8322C15.9744 16.4107 15.9744 30.2906 16.0624 30.8688C16.4059 33.0665 17.4084 35.0605 18.9447 36.6197C20.2951 37.9941 21.9057 38.9286 23.7483 39.4051C25.0802 39.7519 24.1706 39.7245 35.4765 39.7381L45.6175 39.7519C45.6175 39.7519 54.5334 49.7734 54.6031 49.8521L54.7284 50.0001L54.7561 38.9099L55.3224 38.6186C58.3763 37.0501 60.4093 34.2231 60.9104 30.8458C60.994 30.2718 60.9986 29.902 60.9986 23.3505C60.9986 15.994 61.0033 16.1837 60.7711 15.0687C60.6505 14.5137 60.3767 13.6855 60.1168 13.1028C58.7476 10.063 55.9258 7.82382 52.6863 7.20382C51.5769 6.99094 51.7905 6.99547 38.4423 6.99991C28.617 7.00475 25.7254 7.01856 25.3077 7.06496Z" fill="#F49D89"/>
</svg> -->
<svg xmlns="http://www.w3.org/2000/svg" width="117" height="32" viewBox="0 0 117 32" fill="none">
  <path fill-rule="evenodd" clip-rule="evenodd" d="M9.87094 0.0082602H22.4843C24.4502 0.0082602 26.0527 1.619 26.0527 3.57667V28.4316C26.0527 30.3975 24.4419 32 22.4843 32H3.57667C1.61074 32 0.0082602 30.3893 0.0082602 28.4316V9.16056L9.87094 0V0.0082602Z" fill="url(#paint0_linear_351_29)"/>
  <path d="M15.9504 3.78317H6.41817C6.32693 3.78317 6.25297 3.98657 6.25297 4.23748V8.55756C6.25297 8.80847 6.32693 9.01188 6.41817 9.01188H15.9504C16.0417 9.01188 16.1156 8.80847 16.1156 8.55756V4.23748C16.1156 3.98657 16.0417 3.78317 15.9504 3.78317Z" fill="white"/>
  <path d="M19.9979 12.8942H4.62571C4.47973 12.8942 4.36138 13.0976 4.36138 13.3485V17.6686C4.36138 17.9195 4.47973 18.1229 4.62571 18.1229H19.9979C20.1439 18.1229 20.2623 17.9195 20.2623 17.6686V13.3485C20.2623 13.0976 20.1439 12.8942 19.9979 12.8942Z" fill="white"/>
  <path d="M15.6696 21.9969H4.55137C4.44644 21.9969 4.36138 22.2003 4.36138 22.4512V26.7713C4.36138 27.0222 4.44644 27.2256 4.55137 27.2256H15.6696C15.7745 27.2256 15.8596 27.0222 15.8596 26.7713V22.4512C15.8596 22.2003 15.7745 21.9969 15.6696 21.9969Z" fill="white"/>
  <path fill-rule="evenodd" clip-rule="evenodd" d="M0.0082602 9.16882L9.87094 0.0082602C9.49097 2.23851 9.21012 4.48529 9.14404 6.74858C9.08622 8.71451 7.62416 9.01188 5.7491 8.96231C3.87403 8.91275 0.0082602 9.17708 0.0082602 9.17708V9.16882Z" fill="#001AC1"/>
  <path fill-rule="evenodd" clip-rule="evenodd" d="M9.87094 0.0082602L8.11977 4.1301C6.96335 6.8477 7.26897 6.97161 4.77439 7.72328L0 9.16882L9.86268 0.0082602L9.87094 0.0082602Z" fill="#73D0FF"/>
  <path d="M23.1368 3.78317H18.1064C18.0562 3.78317 18.0155 3.98657 18.0155 4.23748V8.55756C18.0155 8.80847 18.0562 9.01188 18.1064 9.01188H23.1368C23.187 9.01188 23.2277 8.80847 23.2277 8.55756V4.23748C23.2277 3.98657 23.187 3.78317 23.1368 3.78317Z" fill="white"/>
  <path fill-rule="evenodd" clip-rule="evenodd" d="M23.9383 3.0957C23.4639 3.29928 22.7997 4.14266 22.4107 4.54981C22.1545 4.81155 21.9647 5.01513 21.6895 5.28656C21.4998 5.48044 21.1487 6.0427 20.8261 5.80035C20.4845 5.5483 19.7539 4.29777 19.0518 5.0539C18.3591 5.80035 19.4123 6.57587 19.7634 6.93455C21.2151 8.41774 20.9684 8.20448 22.9989 6.13964C23.4923 5.63555 23.9762 5.14115 24.4507 4.61767C24.6689 4.38501 25.02 4.09419 24.8397 3.55132C24.7258 3.21203 24.3558 2.91151 23.9288 3.0957H23.9383Z" fill="#2746FF"/>
  <path d="M36.5915 26.1003V10.8736H39.5556V26.1003H36.5915ZM38.0884 8.52423C37.5729 8.52423 37.1302 8.3524 36.7601 8.00874C36.3966 7.65848 36.2148 7.24212 36.2148 6.75968C36.2148 6.27064 36.3966 5.85428 36.7601 5.51063C37.1302 5.16036 37.5729 4.98523 38.0884 4.98523C38.6039 4.98523 39.0434 5.16036 39.4069 5.51063C39.777 5.85428 39.962 6.27064 39.962 6.75968C39.962 7.24212 39.777 7.65848 39.4069 8.00874C39.0434 8.3524 38.6039 8.52423 38.0884 8.52423Z" fill="#010342"/>
  <path d="M52.4273 31.8102V23.731H52.2489C52.0704 24.0548 51.8127 24.4249 51.4757 24.8413C51.1452 25.2576 50.6892 25.6211 50.1076 25.9317C49.5261 26.2423 48.7727 26.3976 47.8474 26.3976C46.6182 26.3976 45.5211 26.0837 44.5563 25.4559C43.598 24.8215 42.8446 23.9194 42.2961 22.7496C41.7542 21.5732 41.4832 20.1623 41.4832 18.5167C41.4832 16.8711 41.7575 15.4634 42.306 14.2937C42.8611 13.1239 43.6211 12.2284 44.586 11.6072C45.5509 10.986 46.6446 10.6754 47.8673 10.6754C48.8123 10.6754 49.5723 10.834 50.1473 11.1512C50.7289 11.4618 51.1783 11.8253 51.4955 12.2417C51.8193 12.658 52.0704 13.0248 52.2489 13.342H52.4967V10.8736H55.3914V31.8102H52.4273ZM48.5017 23.8698C49.3542 23.8698 50.0746 23.6451 50.6628 23.1957C51.2576 22.7397 51.707 22.1086 52.011 21.3023C52.3216 20.496 52.4769 19.5576 52.4769 18.4869C52.4769 17.4295 52.3249 16.5043 52.0209 15.7113C51.7169 14.9182 51.2708 14.3003 50.6826 13.8575C50.0944 13.4147 49.3675 13.1933 48.5017 13.1933C47.6095 13.1933 46.866 13.4246 46.2712 13.8872C45.6765 14.3499 45.2271 14.981 44.9231 15.7807C44.6257 16.5803 44.477 17.4824 44.477 18.4869C44.477 19.5047 44.629 20.42 44.933 21.2329C45.237 22.0458 45.6864 22.6901 46.2812 23.166C46.8826 23.6352 47.6227 23.8698 48.5017 23.8698Z" fill="#010342"/>
  <path d="M58.2186 26.1003V5.79811H61.1826V13.342H61.3611C61.5329 13.0248 61.7807 12.658 62.1045 12.2417C62.4284 11.8253 62.8778 11.4618 63.4527 11.1512C64.0277 10.834 64.7877 10.6754 65.7328 10.6754C66.962 10.6754 68.059 10.986 69.0239 11.6072C69.9888 12.2284 70.7455 13.1239 71.294 14.2937C71.8492 15.4634 72.1267 16.8711 72.1267 18.5167C72.1267 20.1623 71.8525 21.5732 71.304 22.7496C70.7554 23.9194 70.002 24.8215 69.0438 25.4559C68.0855 26.0837 66.9917 26.3976 65.7625 26.3976C64.8373 26.3976 64.0806 26.2423 63.4924 25.9317C62.9108 25.6211 62.4548 25.2576 62.1244 24.8413C61.7939 24.4249 61.5395 24.0548 61.3611 23.731H61.1132V26.1003H58.2186ZM61.1231 18.4869C61.1231 19.5576 61.2784 20.496 61.5891 21.3023C61.8997 22.1086 62.3491 22.7397 62.9372 23.1957C63.5254 23.6451 64.2458 23.8698 65.0983 23.8698C65.9839 23.8698 66.7241 23.6352 67.3189 23.166C67.9137 22.6901 68.363 22.0458 68.667 21.2329C68.9777 20.42 69.133 19.5047 69.133 18.4869C69.133 17.4824 68.981 16.5803 68.677 15.7807C68.3796 14.981 67.9302 14.3499 67.3288 13.8872C66.734 13.4246 65.9905 13.1933 65.0983 13.1933C64.2392 13.1933 63.5122 13.4147 62.9174 13.8575C62.3292 14.3003 61.8831 14.9182 61.5791 15.7113C61.2751 16.5043 61.1231 17.4295 61.1231 18.4869Z" fill="#010342"/>
  <path d="M81.167 10.8736V13.2528H72.8499V10.8736H81.167ZM75.0804 7.2256H78.0444V21.6294C78.0444 22.2044 78.1303 22.6373 78.3021 22.928C78.474 23.2122 78.6954 23.4072 78.9663 23.5129C79.2439 23.612 79.5446 23.6616 79.8684 23.6616C80.1063 23.6616 80.3145 23.6451 80.4929 23.6121C80.6714 23.579 80.8102 23.5526 80.9093 23.5327L81.4446 25.9813C81.2728 26.0474 81.0283 26.1135 80.711 26.1796C80.3938 26.2523 79.9973 26.2919 79.5215 26.2985C78.7416 26.3117 78.0147 26.1729 77.3406 25.8822C76.6665 25.5914 76.1213 25.142 75.7049 24.534C75.2885 23.926 75.0804 23.1627 75.0804 22.244V7.2256Z" fill="#010342"/>
  <path d="M89.3003 26.4076C87.8728 26.4076 86.627 26.0804 85.563 25.4262C84.499 24.7719 83.6729 23.8566 83.0847 22.6802C82.4966 21.5039 82.2025 20.1292 82.2025 18.5563C82.2025 16.9768 82.4966 15.5956 83.0847 14.4126C83.6729 13.2297 84.499 12.3111 85.563 11.6568C86.627 11.0025 87.8728 10.6754 89.3003 10.6754C90.7278 10.6754 91.9735 11.0025 93.0376 11.6568C94.1016 12.3111 94.9277 13.2297 95.5158 14.4126C96.104 15.5956 96.3981 16.9768 96.3981 18.5563C96.3981 20.1292 96.104 21.5039 95.5158 22.6802C94.9277 23.8566 94.1016 24.7719 93.0376 25.4262C91.9735 26.0804 90.7278 26.4076 89.3003 26.4076ZM89.3102 23.9194C90.2354 23.9194 91.0021 23.6748 91.6101 23.1858C92.2181 22.6967 92.6675 22.0458 92.9583 21.2329C93.2556 20.42 93.4043 19.5245 93.4043 18.5464C93.4043 17.5749 93.2556 16.6828 92.9583 15.8699C92.6675 15.0504 92.2181 14.3928 91.6101 13.8972C91.0021 13.4015 90.2354 13.1537 89.3102 13.1537C88.3784 13.1537 87.6051 13.4015 86.9905 13.8972C86.3825 14.3928 85.9298 15.0504 85.6324 15.8699C85.3416 16.6828 85.1963 17.5749 85.1963 18.5464C85.1963 19.5245 85.3416 20.42 85.6324 21.2329C85.9298 22.0458 86.3825 22.6967 86.9905 23.1858C87.6051 23.6748 88.3784 23.9194 89.3102 23.9194Z" fill="#010342"/>
  <path d="M104.725 26.4076C103.297 26.4076 102.051 26.0804 100.987 25.4262C99.9234 24.7719 99.0973 23.8566 98.5091 22.6802C97.9209 21.5039 97.6269 20.1292 97.6269 18.5563C97.6269 16.9768 97.9209 15.5956 98.5091 14.4126C99.0973 13.2297 99.9234 12.3111 100.987 11.6568C102.051 11.0025 103.297 10.6754 104.725 10.6754C106.152 10.6754 107.398 11.0025 108.462 11.6568C109.526 12.3111 110.352 13.2297 110.94 14.4126C111.528 15.5956 111.822 16.9768 111.822 18.5563C111.822 20.1292 111.528 21.5039 110.94 22.6802C110.352 23.8566 109.526 24.7719 108.462 25.4262C107.398 26.0804 106.152 26.4076 104.725 26.4076ZM104.735 23.9194C105.66 23.9194 106.426 23.6748 107.034 23.1858C107.642 22.6967 108.092 22.0458 108.383 21.2329C108.68 20.42 108.829 19.5245 108.829 18.5464C108.829 17.5749 108.68 16.6828 108.383 15.8699C108.092 15.0504 107.642 14.3928 107.034 13.8972C106.426 13.4015 105.66 13.1537 104.735 13.1537C103.803 13.1537 103.03 13.4015 102.415 13.8972C101.807 14.3928 101.354 15.0504 101.057 15.8699C100.766 16.6828 100.621 17.5749 100.621 18.5464C100.621 19.5245 100.766 20.42 101.057 21.2329C101.354 22.0458 101.807 22.6967 102.415 23.1858C103.03 23.6748 103.803 23.9194 104.735 23.9194Z" fill="#010342"/>
  <path d="M116.699 5.79811V26.1003H113.735V5.79811H116.699Z" fill="#010342"/>
  <defs>
    <linearGradient id="paint0_linear_351_29" x1="13.0305" y1="0.0082602" x2="13.0305" y2="32.0083" gradientUnits="userSpaceOnUse">
      <stop stop-color="#293FFF"/>
      <stop offset="1" stop-color="#00B3FF"/>
    </linearGradient>
  </defs>
</svg>