<svg width="16" height="16" viewBox="0 0 16 16" fill="none" xmlns="http://www.w3.org/2000/svg">
<path d="M5.33333 9.3335C5.14445 9.3335 4.986 9.2695 4.858 9.1415C4.73 9.0135 4.66622 8.85527 4.66667 8.66683C4.66667 8.47794 4.73067 8.3195 4.85867 8.1915C4.98667 8.0635 5.14489 7.99972 5.33333 8.00016C5.52222 8.00016 5.68067 8.06416 5.80867 8.19216C5.93667 8.32016 6.00045 8.47838 6 8.66683C6 8.85572 5.936 9.01416 5.808 9.14216C5.68 9.27016 5.52178 9.33394 5.33333 9.3335ZM8 9.3335C7.81111 9.3335 7.65267 9.2695 7.52467 9.1415C7.39667 9.0135 7.33289 8.85527 7.33333 8.66683C7.33333 8.47794 7.39734 8.3195 7.52533 8.1915C7.65333 8.0635 7.81156 7.99972 8 8.00016C8.18889 8.00016 8.34733 8.06416 8.47534 8.19216C8.60333 8.32016 8.66711 8.47838 8.66667 8.66683C8.66667 8.85572 8.60267 9.01416 8.47467 9.14216C8.34667 9.27016 8.18845 9.33394 8 9.3335ZM10.6667 9.3335C10.4778 9.3335 10.3193 9.2695 10.1913 9.1415C10.0633 9.0135 9.99956 8.85527 10 8.66683C10 8.47794 10.064 8.3195 10.192 8.1915C10.32 8.0635 10.4782 7.99972 10.6667 8.00016C10.8556 8.00016 11.014 8.06416 11.142 8.19216C11.27 8.32016 11.3338 8.47838 11.3333 8.66683C11.3333 8.85572 11.2693 9.01416 11.1413 9.14216C11.0133 9.27016 10.8551 9.33394 10.6667 9.3335ZM3.33333 14.6668C2.96667 14.6668 2.65267 14.5362 2.39133 14.2748C2.13 14.0135 1.99956 13.6997 2 13.3335V4.00016C2 3.6335 2.13067 3.3195 2.392 3.05816C2.65333 2.79683 2.96711 2.66639 3.33333 2.66683H4V1.3335H5.33333V2.66683H10.6667V1.3335H12V2.66683H12.6667C13.0333 2.66683 13.3473 2.7975 13.6087 3.05883C13.87 3.32016 14.0004 3.63394 14 4.00016V13.3335C14 13.7002 13.8693 14.0142 13.608 14.2755C13.3467 14.5368 13.0329 14.6673 12.6667 14.6668H3.33333ZM3.33333 13.3335H12.6667V6.66683H3.33333V13.3335ZM3.33333 5.3335H12.6667V4.00016H3.33333V5.3335Z" fill="#0E0B3D"/>
</svg>
