<svg width="14" height="14" viewBox="0 0 14 14" fill="none" xmlns="http://www.w3.org/2000/svg">
<path d="M6.99984 7.58317C7.322 7.58317 7.58317 7.322 7.58317 6.99984C7.58317 6.67767 7.322 6.4165 6.99984 6.4165C6.67767 6.4165 6.4165 6.67767 6.4165 6.99984C6.4165 7.322 6.67767 7.58317 6.99984 7.58317Z" stroke="#0E0B3D" strokeWidth="1.5" stroke-linecap="round" stroke-linejoin="round"/>
<path d="M11.0833 7.58317C11.4055 7.58317 11.6667 7.322 11.6667 6.99984C11.6667 6.67767 11.4055 6.4165 11.0833 6.4165C10.7612 6.4165 10.5 6.67767 10.5 6.99984C10.5 7.322 10.7612 7.58317 11.0833 7.58317Z" stroke="#0E0B3D" strokeWidth="1.5" stroke-linecap="round" stroke-linejoin="round"/>
<path d="M2.91683 7.58317C3.239 7.58317 3.50016 7.322 3.50016 6.99984C3.50016 6.67767 3.239 6.4165 2.91683 6.4165C2.59466 6.4165 2.3335 6.67767 2.3335 6.99984C2.3335 7.322 2.59466 7.58317 2.91683 7.58317Z" stroke="#0E0B3D" strokeWidth="1.5" stroke-linecap="round" stroke-linejoin="round"/>
</svg>
