<svg width="16" height="16" viewBox="0 0 16 16" fill="none" xmlns="http://www.w3.org/2000/svg">
<path d="M13 2.25H6C4.87283 2.25 3.79183 2.69777 2.9948 3.4948C2.19777 4.29183 1.75 5.37283 1.75 6.5C1.75 7.62717 2.19777 8.70817 2.9948 9.5052C3.79183 10.3022 4.87283 10.75 6 10.75H8.25V13C8.25 13.1989 8.32902 13.3897 8.46967 13.5303C8.61032 13.671 8.80109 13.75 9 13.75C9.19891 13.75 9.38968 13.671 9.53033 13.5303C9.67098 13.3897 9.75 13.1989 9.75 13V3.75H10.75V13C10.75 13.1989 10.829 13.3897 10.9697 13.5303C11.1103 13.671 11.3011 13.75 11.5 13.75C11.6989 13.75 11.8897 13.671 12.0303 13.5303C12.171 13.3897 12.25 13.1989 12.25 13V3.75H13C13.1989 3.75 13.3897 3.67098 13.5303 3.53033C13.671 3.38968 13.75 3.19891 13.75 3C13.75 2.80109 13.671 2.61032 13.5303 2.46967C13.3897 2.32902 13.1989 2.25 13 2.25ZM8.25 9.25H6C5.27065 9.25 4.57118 8.96027 4.05546 8.44454C3.53973 7.92882 3.25 7.22935 3.25 6.5C3.25 5.77065 3.53973 5.07118 4.05546 4.55546C4.57118 4.03973 5.27065 3.75 6 3.75H8.25V9.25Z" fill="#0E0B3D"/>
</svg>
