<svg width="16" height="16" viewBox="0 0 16 16" fill="none" xmlns="http://www.w3.org/2000/svg">
<path d="M2.6665 11.3332V4.6665L7.33317 11.3332V4.6665M9.99984 11.3332H13.3332M9.99984 6.6665C9.99984 7.19694 10.1754 7.70564 10.488 8.08072C10.8006 8.45579 11.2245 8.6665 11.6665 8.6665C12.1085 8.6665 12.5325 8.45579 12.845 8.08072C13.1576 7.70564 13.3332 7.19694 13.3332 6.6665C13.3332 6.13607 13.1576 5.62736 12.845 5.25229C12.5325 4.87722 12.1085 4.6665 11.6665 4.6665C11.2245 4.6665 10.8006 4.87722 10.488 5.25229C10.1754 5.62736 9.99984 6.13607 9.99984 6.6665Z" stroke="#0E0B3D" strokeWidth="1.5" stroke-linecap="round" stroke-linejoin="round"/>
</svg>
