<svg width="14" height="14" viewBox="0 0 14 14" fill="none" xmlns="http://www.w3.org/2000/svg">
<path d="M1.75 3.5H2.91667H12.25" stroke="#0E0B3D" strokeWidth="1.5" stroke-linecap="round" stroke-linejoin="round"/>
<path d="M11.0832 3.49984V11.6665C11.0832 11.9759 10.9603 12.2727 10.7415 12.4915C10.5227 12.7103 10.2259 12.8332 9.9165 12.8332H4.08317C3.77375 12.8332 3.47701 12.7103 3.25821 12.4915C3.03942 12.2727 2.9165 11.9759 2.9165 11.6665V3.49984M4.6665 3.49984V2.33317C4.6665 2.02375 4.78942 1.72701 5.00821 1.50821C5.22701 1.28942 5.52375 1.1665 5.83317 1.1665H8.1665C8.47592 1.1665 8.77267 1.28942 8.99146 1.50821C9.21025 1.72701 9.33317 2.02375 9.33317 2.33317V3.49984" stroke="#0E0B3D" strokeWidth="1.5" stroke-linecap="round" stroke-linejoin="round"/>
<path d="M5.8335 6.4165V9.9165" stroke="#0E0B3D" strokeWidth="1.5" stroke-linecap="round" stroke-linejoin="round"/>
<path d="M8.1665 6.4165V9.9165" stroke="#0E0B3D" strokeWidth="1.5" stroke-linecap="round" stroke-linejoin="round"/>
</svg>
