<svg version="1.0" xmlns="http://www.w3.org/2000/svg"
 width="64.000000pt" height="64.000000pt" viewBox="0 0 64.000000 64.000000"
 preserveAspectRatio="xMidYMid meet">

<g transform="translate(0.000000,64.000000) scale(0.100000,-0.100000)"
fill="#000000" stroke="none">
<path d="M251 630 c-90 -19 -183 -97 -224 -189 -31 -70 -29 -182 6 -252 14
-30 39 -67 54 -81 l28 -27 60 33 c73 40 80 66 40 147 -23 49 -25 62 -20 129
10 125 31 152 117 154 58 1 104 -20 117 -52 15 -41 25 -188 13 -196 -21 -13
-54 -93 -50 -121 2 -25 13 -35 67 -63 l64 -33 29 28 c84 80 108 236 55 346
-32 63 -100 131 -160 157 -52 23 -138 31 -196 20z"/>
</g>
</svg>
